<svg width="24" height="24" viewBox="0 0 24 24" fill="none" xmlns="http://www.w3.org/2000/svg">
<path d="M19.4142 9.95192L12.0515 18.786C10.6366 20.4837 8.11554 20.7127 6.41786 19.2978C4.72018 17.8829 4.49115 15.3618 5.90606 13.6641L13.909 4.06188C14.7925 3.00179 16.3699 2.85849 17.43 3.74201C18.4901 4.62553 18.6334 6.20295 17.7499 7.26304L11.0274 15.3289C10.6753 15.7514 10.0415 15.809 9.61902 15.4569C9.19652 15.1048 9.13895 14.471 9.49107 14.0485L15.5733 6.75076L14.421 5.79041L8.3388 13.0881C7.45528 14.1482 7.59858 15.7256 8.65867 16.6092C9.71876 17.4927 11.2962 17.3494 12.1797 16.2893L18.9021 8.22339C20.3171 6.52571 20.088 4.00465 18.3904 2.58974C16.6927 1.17482 14.1716 1.40385 12.7567 3.10153L4.75379 12.7038C2.80749 15.0391 3.12224 18.5038 5.45751 20.4501C7.79278 22.3964 11.2575 22.0816 13.2038 19.7464L20.5665 10.9123L19.4142 9.95192Z" fill="#84818A"/>
</svg>
