<svg width="16" height="16" viewBox="0 0 16 16" fill="none" xmlns="http://www.w3.org/2000/svg">
<path fill-rule="evenodd" clip-rule="evenodd" d="M14.6668 3.45349L7.06013 11.0668L4.23346 8.24016L5.17346 7.30016L7.06013 9.18682L13.7268 2.52016L14.6668 3.45349ZM13.1935 6.8135C13.2802 7.1935 13.3335 7.5935 13.3335 8.00016C13.3335 10.9468 10.9468 13.3335 8.00016 13.3335C5.0535 13.3335 2.66683 10.9468 2.66683 8.00016C2.66683 5.0535 5.0535 2.66683 8.00016 2.66683C9.0535 2.66683 10.0268 2.9735 10.8535 3.50016L11.8135 2.54016C10.7335 1.78016 9.42016 1.3335 8.00016 1.3335C4.32016 1.3335 1.3335 4.32016 1.3335 8.00016C1.3335 11.6802 4.32016 14.6668 8.00016 14.6668C11.6802 14.6668 14.6668 11.6802 14.6668 8.00016C14.6668 7.20683 14.5202 6.44683 14.2668 5.74016L13.1935 6.8135Z" fill="white"/>
</svg>
