<svg width="37" height="37" viewBox="0 0 37 37" fill="none" xmlns="http://www.w3.org/2000/svg">
<rect width="37" height="37" rx="18.5" fill="#F28C5A" fill-opacity="0.2"/>
<path d="M24.3593 10H11.9725C10.8832 10 10 10.8832 10 11.9725V24.3593C10 25.4486 10.8832 26.3318 11.9725 26.3318H24.3593C25.4486 26.3318 26.3318 25.4486 26.3318 24.3593V11.973C26.3322 10.8832 25.4491 10 24.3593 10ZM22.57 18.8851H18.8846V22.5705C18.8846 22.9676 18.563 23.2892 18.1659 23.2892C17.7688 23.2892 17.4471 22.9676 17.4471 22.5705V18.8851H13.7618C13.3646 18.8851 13.043 18.5635 13.043 18.1663C13.043 17.7692 13.3646 17.4476 13.7618 17.4476H17.4471V13.7622C17.4471 13.3651 17.7688 13.0435 18.1659 13.0435C18.563 13.0435 18.8846 13.3651 18.8846 13.7622V17.4476H22.57C22.9671 17.4476 23.2888 17.7692 23.2888 18.1663C23.2888 18.5635 22.9671 18.8851 22.57 18.8851Z" fill="#F28C5A"/>
</svg>
