<svg width="24" height="24" viewBox="0 0 24 24" fill="none" xmlns="http://www.w3.org/2000/svg">
<circle cx="12.0487" cy="11.736" r="8.53535" fill="white"/>
<path d="M12.0486 0C9.72743 0 7.45838 0.688311 5.52838 1.97789C3.59839 3.26747 2.09414 5.1004 1.20586 7.2449C0.317585 9.38939 0.0851709 11.7491 0.538011 14.0257C0.990852 16.3023 2.10861 18.3935 3.74993 20.0348C5.39126 21.6761 7.48243 22.7939 9.75902 23.2467C12.0356 23.6996 14.3953 23.4671 16.5398 22.5789C18.6843 21.6906 20.5173 20.1863 21.8068 18.2563C23.0964 16.3264 23.7847 14.0573 23.7847 11.7361C23.7847 8.6235 22.5482 5.63838 20.3473 3.43743C18.1464 1.23648 15.1612 0 12.0486 0V0ZM18.1375 9.28967L10.6691 16.7581C10.469 16.9581 10.1977 17.0705 9.91478 17.0705C9.63187 17.0705 9.36054 16.9581 9.16047 16.7581L5.95971 13.5573C5.76536 13.3561 5.65782 13.0866 5.66025 12.8069C5.66268 12.5271 5.77489 12.2595 5.97271 12.0617C6.17052 11.8639 6.43812 11.7517 6.71786 11.7493C6.9976 11.7468 7.26711 11.8544 7.46833 12.0487L9.91478 14.4952L16.6289 7.78104C16.8301 7.58669 17.0996 7.47915 17.3794 7.48159C17.6591 7.48402 17.9267 7.59622 18.1245 7.79404C18.3223 7.99185 18.4346 8.25945 18.437 8.53919C18.4394 8.81894 18.3319 9.08844 18.1375 9.28967V9.28967Z" fill="#34A853"/>
</svg>
