<svg width="37" height="37" viewBox="0 0 37 37" fill="none" xmlns="http://www.w3.org/2000/svg">
<rect width="37" height="37" rx="18.5" fill="#00B050" fill-opacity="0.2"/>
<path d="M15.1101 25.0417L11.5833 27.8125V13.1667C11.5833 12.9567 11.6667 12.7553 11.8151 12.6069C11.9636 12.4584 12.165 12.375 12.3749 12.375H26.6249C26.8349 12.375 27.0362 12.4584 27.1847 12.6069C27.3332 12.7553 27.4166 12.9567 27.4166 13.1667V24.25C27.4166 24.46 27.3332 24.6613 27.1847 24.8098C27.0362 24.9583 26.8349 25.0417 26.6249 25.0417H15.1101ZM18.7083 17.9167H16.3333V19.5H18.7083V21.875H20.2916V19.5H22.6666V17.9167H20.2916V15.5417H18.7083V17.9167Z" fill="#00B050"/>
</svg>
