<svg width="20" height="20" viewBox="0 0 20 20" fill="none" xmlns="http://www.w3.org/2000/svg">
<g clip-path="url(#clip0_17_3934)">
<path d="M15.1676 17.0599C15.0062 17.3345 14.7764 17.5627 14.5005 17.7222C14.2247 17.8816 13.9123 17.9669 13.5937 17.9697H6.30248C5.98391 17.9669 5.67149 17.8816 5.39568 17.7222C5.11987 17.5627 4.89006 17.3345 4.72866 17.0599L1.08303 10.7461C0.921157 10.4657 0.835937 10.1477 0.835938 9.82394C0.835937 9.50019 0.921157 9.18215 1.08303 8.90177L4.72866 2.61261C4.89006 2.33793 5.11987 2.10975 5.39568 1.95029C5.67149 1.79084 5.98391 1.70555 6.30248 1.70274H13.5937C13.9123 1.70555 14.2247 1.79084 14.5005 1.95029C14.7764 2.10975 15.0062 2.33793 15.1676 2.61261L18.8132 8.92636C18.9751 9.20674 19.0603 9.52478 19.0603 9.84853C19.0603 10.1723 18.9751 10.4903 18.8132 10.7707L15.1676 17.0599ZM13.022 9.83623C13.022 9.22828 12.8417 8.63397 12.504 8.12847C12.1662 7.62298 11.6861 7.22899 11.1244 6.99633C10.5628 6.76368 9.9447 6.70281 9.34842 6.82141C8.75215 6.94002 8.20444 7.23278 7.77455 7.66267C7.34466 8.09256 7.0519 8.64027 6.93329 9.23655C6.81468 9.83282 6.87556 10.4509 7.10821 11.0126C7.34087 11.5742 7.73485 12.0543 8.24035 12.3921C8.74585 12.7298 9.34015 12.9101 9.94811 12.9101C10.7634 12.9101 11.5452 12.5863 12.1217 12.0098C12.6981 11.4333 13.022 10.6515 13.022 9.83623Z" fill="#BFBFBF"/>
</g>
<defs>
<clipPath id="clip0_17_3934">
<rect width="19.6729" height="19.6729" fill="white" transform="matrix(1 0 0 -1 0.111816 19.6729)"/>
</clipPath>
</defs>
</svg>
