<svg width="20" height="5" viewBox="0 0 20 5" fill="none" xmlns="http://www.w3.org/2000/svg">
<path d="M17.043 5C18.4237 5 19.543 3.88071 19.543 2.5C19.543 1.11929 18.4237 0 17.043 0C15.6623 0 14.543 1.11929 14.543 2.5C14.543 3.88071 15.6623 5 17.043 5Z" fill="#647994"/>
<path d="M10.043 5C11.4237 5 12.543 3.88071 12.543 2.5C12.543 1.11929 11.4237 0 10.043 0C8.66226 0 7.54297 1.11929 7.54297 2.5C7.54297 3.88071 8.66226 5 10.043 5Z" fill="#647994"/>
<path d="M3.04297 5C4.42368 5 5.54297 3.88071 5.54297 2.5C5.54297 1.11929 4.42368 0 3.04297 0C1.66226 0 0.542969 1.11929 0.542969 2.5C0.542969 3.88071 1.66226 5 3.04297 5Z" fill="#647994"/>
</svg>
