<svg width="17" height="18" viewBox="0 0 17 18" fill="none" xmlns="http://www.w3.org/2000/svg">
<path d="M8.5 1.5C4.36449 1.5 1 4.86449 1 9C1 13.1355 4.36449 16.5 8.5 16.5C12.6355 16.5 16 13.1355 16 9C16 4.86449 12.6355 1.5 8.5 1.5ZM8.5 0.5C13.1944 0.5 17 4.30558 17 9C17 13.6944 13.1944 17.5 8.5 17.5C3.80558 17.5 0 13.6944 0 9C0 4.30558 3.80558 0.5 8.5 0.5Z" fill="#34A853"/>
<path d="M8.73119 10.4789L11.5522 7.65586C11.6018 7.60642 11.6606 7.56722 11.7253 7.54052C11.79 7.51381 11.8594 7.50011 11.9294 7.5002C11.9994 7.50029 12.0687 7.51418 12.1334 7.54106C12.198 7.56794 12.2568 7.60729 12.3062 7.65686C12.3556 7.70643 12.3948 7.76526 12.4215 7.82998C12.4482 7.8947 12.4619 7.96405 12.4619 8.03407C12.4618 8.10408 12.4479 8.17339 12.421 8.23804C12.3941 8.30269 12.3548 8.36142 12.3052 8.41086L9.10519 11.6109C9.00822 11.7062 8.87843 11.7607 8.74248 11.7633C8.60653 11.7659 8.47475 11.7164 8.37419 11.6249L5.15519 8.41386C5.05507 8.31401 4.99872 8.17847 4.99854 8.03707C4.99835 7.89566 5.05434 7.75998 5.15419 7.65986C5.25405 7.55974 5.38958 7.50339 5.53099 7.5032C5.67239 7.50301 5.80807 7.55901 5.90819 7.65886L8.73119 10.4789Z" fill="#34A853" stroke="#34A853" stroke-width="0.5"/>
</svg>
