<svg width="14" height="17" viewBox="0 0 14 17" fill="none" xmlns="http://www.w3.org/2000/svg">
<path d="M9.37435 0.158691H4.82463V1.67527H9.37435V0.158691ZM6.3412 10.0164H7.85777V5.4667H6.3412V10.0164ZM12.4302 5.00415L13.507 3.92738C13.181 3.54065 12.8246 3.17667 12.4378 2.85819L11.3611 3.93496C10.1857 2.99469 8.70706 2.43355 7.09949 2.43355C3.3308 2.43355 0.274902 5.48945 0.274902 9.25814C0.274902 13.0268 3.32322 16.0827 7.09949 16.0827C10.8758 16.0827 13.9241 13.0268 13.9241 9.25814C13.9241 7.65057 13.3629 6.17191 12.4302 5.00415ZM7.09949 14.5661C4.16492 14.5661 1.79148 12.1927 1.79148 9.25814C1.79148 6.32357 4.16492 3.95013 7.09949 3.95013C10.0341 3.95013 12.4075 6.32357 12.4075 9.25814C12.4075 12.1927 10.0341 14.5661 7.09949 14.5661Z" fill="#84818A"/>
</svg>
