<svg width="22" height="22" viewBox="0 0 22 22" fill="none" xmlns="http://www.w3.org/2000/svg">
<path d="M18.5818 0H2.42371C1.7809 0 1.16442 0.255354 0.709887 0.709887C0.255354 1.16442 0 1.7809 0 2.42371V18.5818C0 19.2246 0.255354 19.841 0.709887 20.2956C1.16442 20.7501 1.7809 21.0055 2.42371 21.0055H18.5818C19.2246 21.0055 19.841 20.7501 20.2956 20.2956C20.7501 19.841 21.0055 19.2246 21.0055 18.5818V2.42371C21.0055 1.7809 20.7501 1.16442 20.2956 0.709887C19.841 0.255354 19.2246 0 18.5818 0ZM4.03951 8.88692H5.65532C5.86958 8.88692 6.07508 8.97204 6.22659 9.12355C6.3781 9.27506 6.46322 9.48056 6.46322 9.69483V11.3106C6.46322 11.5249 6.3781 11.7304 6.22659 11.8819C6.07508 12.0334 5.86958 12.1185 5.65532 12.1185H4.03951C3.82524 12.1185 3.61975 12.0334 3.46824 11.8819C3.31673 11.7304 3.23161 11.5249 3.23161 11.3106V9.69483C3.23161 9.48056 3.31673 9.27506 3.46824 9.12355C3.61975 8.97204 3.82524 8.88692 4.03951 8.88692ZM3.23161 6.46322V4.84741C3.23161 4.63314 3.31673 4.42765 3.46824 4.27614C3.61975 4.12463 3.82524 4.03951 4.03951 4.03951H5.65532C5.86958 4.03951 6.07508 4.12463 6.22659 4.27614C6.3781 4.42765 6.46322 4.63314 6.46322 4.84741V6.46322C6.46322 6.67749 6.3781 6.88298 6.22659 7.03449C6.07508 7.186 5.86958 7.27112 5.65532 7.27112H4.03951C3.82524 7.27112 3.61975 7.186 3.46824 7.03449C3.31673 6.88298 3.23161 6.67749 3.23161 6.46322ZM4.03951 13.7343H5.65532C5.86958 13.7343 6.07508 13.8195 6.22659 13.971C6.3781 14.1225 6.46322 14.328 6.46322 14.5422V16.158C6.46322 16.3723 6.3781 16.5778 6.22659 16.7293C6.07508 16.8808 5.86958 16.9659 5.65532 16.9659H4.03951C3.82524 16.9659 3.61975 16.8808 3.46824 16.7293C3.31673 16.5778 3.23161 16.3723 3.23161 16.158V14.5422C3.23161 14.328 3.31673 14.1225 3.46824 13.971C3.61975 13.8195 3.82524 13.7343 4.03951 13.7343ZM8.88692 14.5422H16.9659C17.1802 14.5422 17.3857 14.6274 17.5372 14.7789C17.6887 14.9304 17.7738 15.1359 17.7738 15.3501C17.7738 15.5644 17.6887 15.7699 17.5372 15.9214C17.3857 16.0729 17.1802 16.158 16.9659 16.158H8.88692C8.67266 16.158 8.46716 16.0729 8.31565 15.9214C8.16414 15.7699 8.07902 15.5644 8.07902 15.3501C8.07902 15.1359 8.16414 14.9304 8.31565 14.7789C8.46716 14.6274 8.67266 14.5422 8.88692 14.5422ZM8.07902 10.5027C8.07902 10.2885 8.16414 10.083 8.31565 9.93146C8.46716 9.77994 8.67266 9.69483 8.88692 9.69483H16.9659C17.1802 9.69483 17.3857 9.77994 17.5372 9.93146C17.6887 10.083 17.7738 10.2885 17.7738 10.5027C17.7738 10.717 17.6887 10.9225 17.5372 11.074C17.3857 11.2255 17.1802 11.3106 16.9659 11.3106H8.88692C8.67266 11.3106 8.46716 11.2255 8.31565 11.074C8.16414 10.9225 8.07902 10.717 8.07902 10.5027ZM16.9659 6.46322H8.88692C8.67266 6.46322 8.46716 6.3781 8.31565 6.22659C8.16414 6.07508 8.07902 5.86958 8.07902 5.65532C8.07902 5.44105 8.16414 5.23555 8.31565 5.08404C8.46716 4.93253 8.67266 4.84741 8.88692 4.84741H16.9659C17.1802 4.84741 17.3857 4.93253 17.5372 5.08404C17.6887 5.23555 17.7738 5.44105 17.7738 5.65532C17.7738 5.86958 17.6887 6.07508 17.5372 6.22659C17.3857 6.3781 17.1802 6.46322 16.9659 6.46322Z" fill="#BFBFBF"/>
</svg>
