<svg width="22" height="22" viewBox="0 0 22 22" fill="none" xmlns="http://www.w3.org/2000/svg">
<path d="M8.09586 0H1.53161C0.687035 0 0 0.687035 0 1.53161V5.47016C0 6.31489 0.687035 7.00192 1.53161 7.00192H8.09586C8.94059 7.00192 9.62763 6.31489 9.62763 5.47016V1.53161C9.62763 0.687035 8.94059 0 8.09586 0Z" fill="#6457F9"/>
<path d="M8.09586 8.75342H1.53161C0.687035 8.75342 0 9.44045 0 10.2852V19.4751C0 20.3197 0.687035 21.0067 1.53161 21.0067H8.09586C8.94059 21.0067 9.62763 20.3197 9.62763 19.4751V10.2852C9.62763 9.44045 8.94059 8.75342 8.09586 8.75342Z" fill="#6457F9"/>
<path d="M19.474 14.0049H12.9097C12.065 14.0049 11.3779 14.6919 11.3779 15.5366V19.4752C11.3779 20.3198 12.065 21.0068 12.9097 21.0068H19.474C20.3185 21.0068 21.0056 20.3198 21.0056 19.4752V15.5366C21.0056 14.6919 20.3185 14.0049 19.474 14.0049Z" fill="#6457F9"/>
<path d="M19.474 0H12.9097C12.065 0 11.3779 0.687035 11.3779 1.53161V10.7216C11.3779 11.5663 12.065 12.2533 12.9097 12.2533H19.474C20.3185 12.2533 21.0056 11.5663 21.0056 10.7216V1.53161C21.0056 0.687035 20.3185 0 19.474 0V0Z" fill="#6457F9"/>
</svg>
