<svg width="22" height="22" viewBox="0 0 22 22" fill="none" xmlns="http://www.w3.org/2000/svg">
<path d="M6.83496 8.38184H10.2331V21.204H6.83496V8.38184Z" fill="#BFBFBF"/>
<path d="M12.6797 11.0996H16.0778V21.2033H12.6797V11.0996Z" fill="#BFBFBF"/>
<path d="M18.5244 6.29932H21.9225V21.2056H18.5244V6.29932Z" fill="#BFBFBF"/>
<path d="M0.990234 13.23H4.38833V21.2042H0.990234V13.23Z" fill="#BFBFBF"/>
<path d="M20.1061 0C19.1559 0 18.3856 0.769737 18.3856 1.71926C18.3856 1.94149 18.4283 2.15367 18.5051 2.34863L15.1893 5.17327C14.946 5.04156 14.6673 4.96675 14.3712 4.96675C13.8795 4.96675 13.4363 5.17322 13.1227 5.50374L10.2604 4.33144C10.2606 4.32034 10.2612 4.30933 10.2612 4.29814C10.2612 3.34862 9.49094 2.57889 8.54074 2.57889C7.59054 2.57889 6.82031 3.34862 6.82031 4.29814C6.82031 4.39424 6.82856 4.48835 6.84373 4.58014L3.86994 6.33841C3.57712 6.1077 3.20777 5.96965 2.80593 5.96965C1.85573 5.96965 1.08545 6.73938 1.08545 7.6889C1.08545 8.63842 1.85573 9.40816 2.80593 9.40816C3.75613 9.40816 4.52637 8.63842 4.52637 7.6889C4.52637 7.5928 4.51812 7.4987 4.50294 7.40691L7.47673 5.64864C7.76956 5.87935 8.13891 6.0174 8.54079 6.0174C9.03252 6.0174 9.47572 5.81093 9.78925 5.48041L12.6516 6.65271C12.6514 6.66381 12.6508 6.67482 12.6508 6.68597C12.6508 7.63549 13.4211 8.40522 14.3712 8.40522C15.3214 8.40522 16.0917 7.63549 16.0917 6.68597C16.0917 6.48702 16.0575 6.29613 15.9953 6.11839L19.3477 3.26254C19.5765 3.37504 19.8338 3.43851 20.1061 3.43851C21.0563 3.43851 21.8266 2.66878 21.8266 1.71926C21.8266 0.769737 21.0563 0 20.1061 0V0Z" fill="#BFBFBF"/>
</svg>
