<svg width="23" height="18" viewBox="0 0 23 18" fill="none" xmlns="http://www.w3.org/2000/svg">
<path d="M2.86816 16.5615C2.86816 16.8375 3.16395 17.0613 3.52879 17.0613H19.3838C19.7487 17.0613 20.0445 16.8375 20.0445 16.5615V15.0288H2.86816V16.5615Z" fill="#BFBFBF"/>
<path d="M11.4559 3.99951C7.81318 3.99951 4.84961 6.24153 4.84961 8.99732V14.0285H18.0621V8.99732C18.0621 6.24153 15.0986 3.99951 11.4559 3.99951Z" fill="#BFBFBF"/>
<path d="M11.4121 2.99869C11.7769 2.99869 12.0727 2.77492 12.0727 2.49891V0.499781C12.0727 0.223769 11.7769 0 11.4121 0C11.0472 0 10.7515 0.223769 10.7515 0.499781V2.49891C10.7515 2.77492 11.0472 2.99869 11.4121 2.99869Z" fill="#BFBFBF"/>
<path d="M6.21019 3.70612C6.39318 3.94592 6.79753 4.02665 7.11261 3.88904C7.42861 3.75103 7.53686 3.44537 7.3544 3.20634L6.03314 1.47506C5.85068 1.236 5.44668 1.15414 5.13073 1.29214C4.81473 1.43015 4.70647 1.73582 4.88894 1.97485L6.21019 3.70612Z" fill="#BFBFBF"/>
<path d="M3.9774 6.2835C4.15987 6.04448 4.05161 5.73881 3.73561 5.6008L1.44712 4.60124C1.13112 4.4632 0.727076 4.5451 0.544699 4.78416C0.362234 5.02319 0.470489 5.32886 0.786489 5.46686L3.07499 6.46643C3.38958 6.60386 3.79419 6.5236 3.9774 6.2835Z" fill="#BFBFBF"/>
<path d="M15.7992 3.88907C16.1138 4.02651 16.5184 3.94621 16.7016 3.70615L18.0229 1.97488C18.2053 1.73585 18.0971 1.43018 17.7811 1.29217C17.4651 1.1541 17.061 1.23603 16.8786 1.47509L15.5574 3.20637C15.3749 3.4454 15.4832 3.75106 15.7992 3.88907Z" fill="#BFBFBF"/>
<path d="M22.3675 4.78413C22.1851 4.54507 21.7811 4.46324 21.4651 4.60121L19.1766 5.60077C18.8606 5.73878 18.7524 6.04445 18.9348 6.28348C19.1178 6.52327 19.5222 6.604 19.8373 6.4664L22.1258 5.46683C22.4418 5.32883 22.55 5.02319 22.3675 4.78413Z" fill="#BFBFBF"/>
</svg>
