<svg width="17" height="18" viewBox="0 0 17 18" fill="none" xmlns="http://www.w3.org/2000/svg">
<path d="M8.5 1.5C4.36449 1.5 1 4.86449 1 9C1 13.1355 4.36449 16.5 8.5 16.5C12.6355 16.5 16 13.1355 16 9C16 4.86449 12.6355 1.5 8.5 1.5ZM8.5 0.5C13.1944 0.5 17 4.30558 17 9C17 13.6944 13.1944 17.5 8.5 17.5C3.80558 17.5 0 13.6944 0 9C0 4.30558 3.80558 0.5 8.5 0.5Z" fill="#F79E1B"/>
<path d="M8.73119 10.4791L11.5522 7.6561C11.6018 7.60666 11.6606 7.56747 11.7253 7.54076C11.79 7.51405 11.8594 7.50035 11.9294 7.50045C11.9994 7.50054 12.0687 7.51442 12.1334 7.5413C12.198 7.56818 12.2568 7.60753 12.3062 7.6571C12.3556 7.70668 12.3948 7.76551 12.4215 7.83023C12.4482 7.89495 12.4619 7.9643 12.4619 8.03431C12.4618 8.10433 12.4479 8.17364 12.421 8.23829C12.3941 8.30294 12.3548 8.36166 12.3052 8.4111L9.10519 11.6111C9.00822 11.7064 8.87843 11.761 8.74248 11.7636C8.60653 11.7662 8.47475 11.7166 8.37419 11.6251L5.15519 8.4141C5.05507 8.31425 4.99872 8.17871 4.99854 8.03731C4.99835 7.89591 5.05434 7.76022 5.15419 7.6601C5.25405 7.55999 5.38958 7.50363 5.53099 7.50345C5.67239 7.50326 5.80807 7.55925 5.90819 7.6591L8.73119 10.4791Z" fill="#F79E1B" stroke="#F79E1B" stroke-width="0.5"/>
</svg>
