<svg width="13" height="16" viewBox="0 0 13 16" fill="none" xmlns="http://www.w3.org/2000/svg">
<path d="M12.1196 6.94645L6.53653 13.6452C5.46362 14.9325 3.55193 15.1062 2.2646 14.0333C0.977274 12.9604 0.803605 11.0487 1.87652 9.76138L7.94502 2.4801C8.61498 1.67625 9.81112 1.56759 10.615 2.23755C11.4188 2.90751 11.5275 4.10365 10.8575 4.9075L5.75999 11.0238C5.49297 11.3442 5.01238 11.3878 4.692 11.1208C4.37163 10.8538 4.32797 10.3732 4.59498 10.0528L9.20704 4.51905L8.33329 3.79083L3.72123 9.3246C3.05127 10.1284 3.15993 11.3246 3.96378 11.9946C4.76764 12.6645 5.96378 12.5558 6.63374 11.752L11.7313 5.63572C12.8042 4.34839 12.6305 2.43671 11.3432 1.3638C10.0559 0.290884 8.14417 0.464554 7.07126 1.75188L1.00276 9.03316C-0.473097 10.804 -0.234423 13.4312 1.53638 14.9071C3.30719 16.3829 5.93443 16.1442 7.41029 14.3734L12.9933 7.67467L12.1196 6.94645Z" fill="#84818A"/>
</svg>
