<svg width="46" height="48" viewBox="0 0 46 48" fill="none" xmlns="http://www.w3.org/2000/svg">
<path d="M40.6923 0H5.30769C3.9 0 2.54997 0.583515 1.55459 1.62218C0.559202 2.66084 0 4.06957 0 5.53846V42.4615C0 43.9304 0.559202 45.3392 1.55459 46.3778C2.54997 47.4165 3.9 48 5.30769 48H40.6923C42.1 48 43.45 47.4165 44.4454 46.3778C45.4408 45.3392 46 43.9304 46 42.4615V5.53846C46 4.06957 45.4408 2.66084 44.4454 1.62218C43.45 0.583515 42.1 0 40.6923 0ZM8.84615 20.3077H12.3846C12.8538 20.3077 13.3039 20.5022 13.6356 20.8484C13.9674 21.1946 14.1538 21.6642 14.1538 22.1538V25.8462C14.1538 26.3358 13.9674 26.8054 13.6356 27.1516C13.3039 27.4978 12.8538 27.6923 12.3846 27.6923H8.84615C8.37692 27.6923 7.92691 27.4978 7.59512 27.1516C7.26332 26.8054 7.07692 26.3358 7.07692 25.8462V22.1538C7.07692 21.6642 7.26332 21.1946 7.59512 20.8484C7.92691 20.5022 8.37692 20.3077 8.84615 20.3077ZM7.07692 14.7692V11.0769C7.07692 10.5873 7.26332 10.1177 7.59512 9.7715C7.92691 9.42527 8.37692 9.23077 8.84615 9.23077H12.3846C12.8538 9.23077 13.3039 9.42527 13.6356 9.7715C13.9674 10.1177 14.1538 10.5873 14.1538 11.0769V14.7692C14.1538 15.2589 13.9674 15.7284 13.6356 16.0747C13.3039 16.4209 12.8538 16.6154 12.3846 16.6154H8.84615C8.37692 16.6154 7.92691 16.4209 7.59512 16.0747C7.26332 15.7284 7.07692 15.2589 7.07692 14.7692ZM8.84615 31.3846H12.3846C12.8538 31.3846 13.3039 31.5791 13.6356 31.9253C13.9674 32.2716 14.1538 32.7411 14.1538 33.2308V36.9231C14.1538 37.4127 13.9674 37.8823 13.6356 38.2285C13.3039 38.5747 12.8538 38.7692 12.3846 38.7692H8.84615C8.37692 38.7692 7.92691 38.5747 7.59512 38.2285C7.26332 37.8823 7.07692 37.4127 7.07692 36.9231V33.2308C7.07692 32.7411 7.26332 32.2716 7.59512 31.9253C7.92691 31.5791 8.37692 31.3846 8.84615 31.3846ZM19.4615 33.2308H37.1538C37.6231 33.2308 38.0731 33.4253 38.4049 33.7715C38.7367 34.1177 38.9231 34.5873 38.9231 35.0769C38.9231 35.5666 38.7367 36.0361 38.4049 36.3824C38.0731 36.7286 37.6231 36.9231 37.1538 36.9231H19.4615C18.9923 36.9231 18.5423 36.7286 18.2105 36.3824C17.8787 36.0361 17.6923 35.5666 17.6923 35.0769C17.6923 34.5873 17.8787 34.1177 18.2105 33.7715C18.5423 33.4253 18.9923 33.2308 19.4615 33.2308ZM17.6923 24C17.6923 23.5104 17.8787 23.0408 18.2105 22.6946C18.5423 22.3484 18.9923 22.1538 19.4615 22.1538H37.1538C37.6231 22.1538 38.0731 22.3484 38.4049 22.6946C38.7367 23.0408 38.9231 23.5104 38.9231 24C38.9231 24.4896 38.7367 24.9592 38.4049 25.3054C38.0731 25.6517 37.6231 25.8462 37.1538 25.8462H19.4615C18.9923 25.8462 18.5423 25.6517 18.2105 25.3054C17.8787 24.9592 17.6923 24.4896 17.6923 24ZM37.1538 14.7692H19.4615C18.9923 14.7692 18.5423 14.5747 18.2105 14.2285C17.8787 13.8823 17.6923 13.4127 17.6923 12.9231C17.6923 12.4334 17.8787 11.9639 18.2105 11.6176C18.5423 11.2714 18.9923 11.0769 19.4615 11.0769H37.1538C37.6231 11.0769 38.0731 11.2714 38.4049 11.6176C38.7367 11.9639 38.9231 12.4334 38.9231 12.9231C38.9231 13.4127 38.7367 13.8823 38.4049 14.2285C38.0731 14.5747 37.6231 14.7692 37.1538 14.7692Z" fill="#6457F9"/>
</svg>
