<svg width="32" height="32" viewBox="0 0 32 32" fill="none" xmlns="http://www.w3.org/2000/svg">
<g clip-path="url(#clip0_17_4572)">
<rect x="1.22605" y="1.22605" width="30.119" height="30.119" rx="15.0595" fill="#FFA043" stroke="white" stroke-width="1.30952"/>
<path d="M10.0525 23.0135C9.22483 23.0135 8.52817 22.7935 7.96245 22.3535C7.40198 21.9135 7.01436 21.3216 6.79959 20.5778L8.42602 20.1928C8.49936 20.5437 8.68531 20.8449 8.98388 21.0964C9.28769 21.3425 9.62555 21.4656 9.99745 21.4656C10.2436 21.4656 10.5003 21.4028 10.7675 21.2771C11.0346 21.1514 11.2336 20.9471 11.3646 20.6642C11.4536 20.4756 11.506 20.2609 11.5217 20.0199C11.5375 19.7737 11.5453 19.4883 11.5453 19.1635V11.4714H13.211V19.1635C13.211 19.4987 13.2084 19.7973 13.2032 20.0592C13.2032 20.3211 13.177 20.5673 13.1246 20.7978C13.0775 21.0283 12.9832 21.2666 12.8417 21.5128C12.5432 22.0314 12.1503 22.4111 11.6632 22.6521C11.176 22.893 10.6391 23.0135 10.0525 23.0135ZM15.5726 22.7856V11.4714H17.2147V16.3506H22.8719V11.4714H24.5219V22.7856H22.8719V17.8985H17.2147V22.7856H15.5726Z" fill="white"/>
</g>
<defs>
<clipPath id="clip0_17_4572">
<rect width="31.4286" height="31.4286" fill="white" transform="translate(0.571289 0.571289)"/>
</clipPath>
</defs>
</svg>
